<svg width="153" height="23" viewBox="0 0 153 23" fill="none" xmlns="http://www.w3.org/2000/svg">
<path d="M6.168 18H8.88L12.432 5.184H12.48L15.96 18H18.672L24.072 0.959999H21L17.328 13.224H17.28L13.968 0.959999H10.896L7.56 13.248H7.512L3.864 0.959999H0.768L6.168 18ZM27.4515 4.56C28.4595 4.56 29.2755 3.744 29.2755 2.76C29.2755 1.8 28.4595 0.983999 27.4515 0.983999C26.4435 0.983999 25.6515 1.8 25.6515 2.76C25.6515 3.744 26.4435 4.56 27.4515 4.56ZM26.1075 18H28.7955V6.288H26.1075V18ZM32.4786 18H35.1666V12.456C35.1666 10.536 36.3186 9.072 38.3586 9.072C38.5506 9.072 38.8626 9.096 39.1746 9.12V6.12H38.8386C37.4226 6.12 36.1266 6.816 35.2146 8.04H35.1666V6.288H32.4786V18ZM51.7841 12C51.7841 8.592 49.5521 6.12 46.2641 6.12C42.8321 6.12 40.3841 8.544 40.3841 12.144C40.3841 15.816 42.9041 18.192 46.4561 18.192C48.9761 18.192 50.4401 17.256 51.4241 15.984L49.5521 14.376C48.9521 15.12 47.9921 15.744 46.6001 15.744C44.7761 15.744 43.5041 14.736 43.1681 13.032H51.7121C51.7361 12.84 51.7841 12.432 51.7841 12ZM46.2401 8.544C47.7761 8.544 48.7361 9.504 49.0721 10.92H43.2161C43.6001 9.384 44.7521 8.544 46.2401 8.544ZM59.5247 18.192C61.2047 18.192 62.4767 17.544 63.3407 16.416H63.3647V18H65.9327V0.335999H63.2687V7.728H63.2447C62.3567 6.672 61.0367 6.12 59.5007 6.12C56.2847 6.12 53.8367 8.664 53.8367 12.192C53.8367 15.816 56.2847 18.192 59.5247 18.192ZM59.9327 15.744C57.9647 15.744 56.5727 14.28 56.5727 12.216C56.5727 9.96 58.0847 8.544 59.9567 8.544C61.9727 8.544 63.3647 10.128 63.3647 12.216C63.3647 14.328 61.8527 15.744 59.9327 15.744ZM76.1974 18H82.9414C86.7094 18 88.5334 16.032 88.5334 13.32C88.5334 10.968 87.1414 9.48 85.1494 9V8.976C86.9014 8.28 87.6694 6.696 87.6694 5.112C87.6694 2.328 85.6294 0.959999 82.1254 0.959999H76.1974V18ZM79.1014 8.016V3.552L81.8134 3.528C83.8054 3.528 84.7174 4.416 84.7174 5.76C84.7174 7.368 83.5414 8.016 81.9094 8.016H79.1014ZM79.1014 15.408V10.512H82.1254C84.3814 10.512 85.5094 11.496 85.5094 13.008C85.5094 14.616 84.3814 15.408 82.5814 15.408H79.1014ZM102.128 12C102.128 8.592 99.8959 6.12 96.6079 6.12C93.1759 6.12 90.7279 8.544 90.7279 12.144C90.7279 15.816 93.2479 18.192 96.7999 18.192C99.3199 18.192 100.784 17.256 101.768 15.984L99.8959 14.376C99.2959 15.12 98.3359 15.744 96.9439 15.744C95.1199 15.744 93.8479 14.736 93.5119 13.032H102.056C102.08 12.84 102.128 12.432 102.128 12ZM96.5839 8.544C98.1199 8.544 99.0799 9.504 99.4159 10.92H93.5599C93.9439 9.384 95.0959 8.544 96.5839 8.544ZM109.844 18.192C111.476 18.192 112.724 17.568 113.564 16.44L113.612 16.464V18H116.18V6.288H113.492V7.704L113.444 7.728C112.604 6.672 111.308 6.12 109.82 6.12C106.604 6.12 104.18 8.664 104.18 12.192C104.18 15.816 106.604 18.192 109.844 18.192ZM110.276 15.744C108.284 15.744 106.916 14.28 106.916 12.216C106.916 9.96 108.404 8.544 110.276 8.544C112.196 8.544 113.612 10.128 113.612 12.216C113.612 14.328 112.1 15.744 110.276 15.744ZM123.724 18.192C125.068 18.192 126.364 17.64 127.3 16.512L127.348 16.536V18H130.036V6.288H127.348V11.904C127.348 14.424 125.908 15.744 124.348 15.744C122.74 15.744 122.02 15.024 122.02 12.696V6.288H119.332V13.416C119.332 16.896 121.132 18.192 123.724 18.192ZM136.927 18.192C138.463 18.192 139.207 17.88 139.903 17.496L139.207 15.168C138.583 15.504 137.935 15.672 137.479 15.672C136.711 15.672 136.351 15.24 136.351 14.04V8.568H139.783V6.288H136.351V2.112L133.663 2.4V6.288H132.223V8.568H133.663V14.304C133.663 16.92 134.911 18.192 136.927 18.192ZM143.605 22.752H146.389L152.821 6.288H150.061L147.061 14.136H147.013L143.797 6.288H140.917L145.717 17.352L143.605 22.752Z" fill="black"/>
</svg>
